# xmcd
#
# Track frame offsets:
#	150
#	17718
#	36853
#	52966
#	71908
#	87855
#	107887
#	122689
#	135025
#	155941
#	170308
#	184985
#
# Disc length: 2738 seconds
#
# Revision: 0
# Processed by: cddbd v1.5.2PL0 Copyright (c) Steve Scherf et al.
# Submitted via: audiograbber 1.83.01
#
DISCID=9f0ab00c
DTITLE=Cdpool - Urban April 10 CD1
DYEAR=2010
DGENRE=R&B
TTITLE0=Timbaland Ft Justin Timberlake - Carry Out (New Version)
TTITLE1=Raheem DeVaughn - I Don't Care (Album Version)
TTITLE2=Yetunde - I'm What You Want
TTITLE3=Angela Johnson - Better
TTITLE4=Lafayette Josephs - Bruised (Main Mix)
TTITLE5=Taz Ft Carl Carni - Take Your Time
TTITLE6=Spoonface Ft Ragga Twins - Champion Soun'
TTITLE7=Lethal Bizzle and Nick Bridges Ft Luciana - Go Go Go (Original Mix)
TTITLE8=Elephant Man, B-Live, Major Ace and Jookie Mondo - Stature Of Liberty (De
TTITLE8=struction Mix - Explicit)
TTITLE9=Nu Brand Ft Bangs - Runway
TTITLE10=C.I.U. Ft T-Mo Goodie and Dubmack - On The Dance Floor (Main Mix)
TTITLE11=Special Kay - UR The 1 (Remix)
EXTD=
EXTT0=
EXTT1=
EXTT2=
EXTT3=
EXTT4=
EXTT5=
EXTT6=
EXTT7=
EXTT8=
EXTT9=
EXTT10=
EXTT11=
PLAYORDER=
